<?xml version="1.0" encoding="iso-8859-1"?>
<!-- Generator: Adobe Illustrator 19.0.0, SVG Export Plug-In . SVG Version: 6.00 Build 0)  -->
<svg version="1.1" id="Layer_1" xmlns="http://www.w3.org/2000/svg" xmlns:xlink="http://www.w3.org/1999/xlink" x="0px" y="0px"
	 viewBox="0 0 512 512" style="enable-background:new 0 0 512 512;" xml:space="preserve">
<g transform="translate(1 1)">
	<path style="fill:#FD9808;" d="M479.427,417.133h-181.76c-12.8,0-23.04-10.24-23.04-23.04V115.907c0-12.8,10.24-23.04,23.04-23.04
		h181.76c12.8,0,23.04,10.24,23.04,23.04v278.187C502.467,406.893,492.227,417.133,479.427,417.133"/>
	<path style="fill:#FFFFFF;" d="M212.333,417.133H30.573c-12.8,0-23.04-10.24-23.04-23.04V115.907c0-12.8,10.24-23.04,23.04-23.04
		h181.76c12.8,0,23.04,10.24,23.04,23.04v278.187C235.373,406.893,225.133,417.133,212.333,417.133"/>
	<path style="fill:#FFDD09;" d="M453.827,417.133H56.173c-12.8,0-23.04-10.24-23.04-23.04V115.907c0-12.8,10.24-23.04,23.04-23.04
		h397.653c12.8,0,23.04,10.24,23.04,23.04v278.187C476.867,406.893,466.627,417.133,453.827,417.133"/>
	<g>
		<polygon style="fill:#FD9808;" points="50.2,169.667 84.333,169.667 84.333,135.533 50.2,135.533 		"/>
		<polygon style="fill:#FD9808;" points="118.467,169.667 152.6,169.667 152.6,135.533 118.467,135.533 		"/>
		<polygon style="fill:#FD9808;" points="186.733,169.667 220.867,169.667 220.867,135.533 186.733,135.533 		"/>
		<polygon style="fill:#FD9808;" points="50.2,237.933 84.333,237.933 84.333,203.8 50.2,203.8 		"/>
		<polygon style="fill:#FD9808;" points="118.467,237.933 152.6,237.933 152.6,203.8 118.467,203.8 		"/>
		<polygon style="fill:#FD9808;" points="186.733,237.933 220.867,237.933 220.867,203.8 186.733,203.8 		"/>
		<polygon style="fill:#FD9808;" points="50.2,306.2 84.333,306.2 84.333,272.067 50.2,272.067 		"/>
		<polygon style="fill:#FD9808;" points="50.2,374.467 84.333,374.467 84.333,340.333 50.2,340.333 		"/>
		<polygon style="fill:#FD9808;" points="118.467,374.467 220.867,374.467 220.867,340.333 118.467,340.333 		"/>
		<polygon style="fill:#FD9808;" points="118.467,306.2 152.6,306.2 152.6,272.067 118.467,272.067 		"/>
		<polygon style="fill:#FD9808;" points="186.733,306.2 220.867,306.2 220.867,272.067 186.733,272.067 		"/>
	</g>
	<polygon style="fill:#15A143;" points="272.067,374.467 459.8,374.467 459.8,135.533 272.067,135.533 	"/>
	<polygon style="fill:#1CD759;" points="272.067,374.467 434.2,374.467 434.2,135.533 272.067,135.533 	"/>
	<g>
		<polygon style="fill:#54C9FD;" points="408.6,331.8 323.267,331.8 323.267,255 365.933,255 408.6,255 		"/>
		<polygon style="fill:#54C9FD;" points="425.667,255 306.2,255 365.933,178.2 		"/>
	</g>
	<path d="M479.427,425.667H30.573C13.507,425.667-1,411.16-1,394.093V115.907c0-17.067,14.507-31.573,31.573-31.573h448.853
		c17.067,0,31.573,14.507,31.573,31.573v278.187C511,411.16,496.493,425.667,479.427,425.667z M30.573,101.4
		c-7.68,0-14.507,6.827-14.507,14.507v278.187c0,7.68,6.827,14.507,14.507,14.507h448.853c7.68,0,14.507-6.827,14.507-14.507
		V115.907c0-7.68-6.827-14.507-14.507-14.507H30.573z"/>
	<path d="M459.8,383H272.067c-5.12,0-8.533-3.413-8.533-8.533V135.533c0-5.12,3.413-8.533,8.533-8.533H459.8
		c5.12,0,8.533,3.413,8.533,8.533v238.933C468.333,379.587,464.92,383,459.8,383z M280.6,365.933h170.667V144.067H280.6V365.933z"/>
	<path d="M84.333,178.2H50.2c-5.12,0-8.533-3.413-8.533-8.533v-34.133c0-5.12,3.413-8.533,8.533-8.533h34.133
		c5.12,0,8.533,3.413,8.533,8.533v34.133C92.867,174.787,89.453,178.2,84.333,178.2z M58.733,161.133H75.8v-17.067H58.733V161.133z"
		/>
	<path d="M152.6,178.2h-34.133c-5.12,0-8.533-3.413-8.533-8.533v-34.133c0-5.12,3.413-8.533,8.533-8.533H152.6
		c5.12,0,8.533,3.413,8.533,8.533v34.133C161.133,174.787,157.72,178.2,152.6,178.2z M127,161.133h17.067v-17.067H127V161.133z"/>
	<path d="M220.867,178.2h-34.133c-5.12,0-8.533-3.413-8.533-8.533v-34.133c0-5.12,3.413-8.533,8.533-8.533h34.133
		c5.12,0,8.533,3.413,8.533,8.533v34.133C229.4,174.787,225.987,178.2,220.867,178.2z M195.267,161.133h17.067v-17.067h-17.067
		V161.133z"/>
	<path d="M84.333,246.467H50.2c-5.12,0-8.533-3.413-8.533-8.533V203.8c0-5.12,3.413-8.533,8.533-8.533h34.133
		c5.12,0,8.533,3.413,8.533,8.533v34.133C92.867,243.053,89.453,246.467,84.333,246.467z M58.733,229.4H75.8v-17.067H58.733V229.4z"
		/>
	<path d="M152.6,246.467h-34.133c-5.12,0-8.533-3.413-8.533-8.533V203.8c0-5.12,3.413-8.533,8.533-8.533H152.6
		c5.12,0,8.533,3.413,8.533,8.533v34.133C161.133,243.053,157.72,246.467,152.6,246.467z M127,229.4h17.067v-17.067H127V229.4z"/>
	<path d="M220.867,246.467h-34.133c-5.12,0-8.533-3.413-8.533-8.533V203.8c0-5.12,3.413-8.533,8.533-8.533h34.133
		c5.12,0,8.533,3.413,8.533,8.533v34.133C229.4,243.053,225.987,246.467,220.867,246.467z M195.267,229.4h17.067v-17.067h-17.067
		V229.4z"/>
	<path d="M84.333,314.733H50.2c-5.12,0-8.533-3.413-8.533-8.533v-34.133c0-5.12,3.413-8.533,8.533-8.533h34.133
		c5.12,0,8.533,3.413,8.533,8.533V306.2C92.867,311.32,89.453,314.733,84.333,314.733z M58.733,297.667H75.8V280.6H58.733V297.667z"
		/>
	<path d="M84.333,383H50.2c-5.12,0-8.533-3.413-8.533-8.533v-34.133c0-5.12,3.413-8.533,8.533-8.533h34.133
		c5.12,0,8.533,3.413,8.533,8.533v34.133C92.867,379.587,89.453,383,84.333,383z M58.733,365.933H75.8v-17.067H58.733V365.933z"/>
	<path d="M220.867,383h-102.4c-5.12,0-8.533-3.413-8.533-8.533v-34.133c0-5.12,3.413-8.533,8.533-8.533h102.4
		c5.12,0,8.533,3.413,8.533,8.533v34.133C229.4,379.587,225.987,383,220.867,383z M127,365.933h85.333v-17.067H127V365.933z"/>
	<path d="M152.6,314.733h-34.133c-5.12,0-8.533-3.413-8.533-8.533v-34.133c0-5.12,3.413-8.533,8.533-8.533H152.6
		c5.12,0,8.533,3.413,8.533,8.533V306.2C161.133,311.32,157.72,314.733,152.6,314.733z M127,297.667h17.067V280.6H127V297.667z"/>
	<path d="M220.867,314.733h-34.133c-5.12,0-8.533-3.413-8.533-8.533v-34.133c0-5.12,3.413-8.533,8.533-8.533h34.133
		c5.12,0,8.533,3.413,8.533,8.533V306.2C229.4,311.32,225.987,314.733,220.867,314.733z M195.267,297.667h17.067V280.6h-17.067
		V297.667z"/>
	<path d="M408.6,340.333h-85.333c-5.12,0-8.533-3.413-8.533-8.533V255c0-5.12,3.413-8.533,8.533-8.533H408.6
		c5.12,0,8.533,3.413,8.533,8.533v76.8C417.133,336.92,413.72,340.333,408.6,340.333z M331.8,323.267h68.267v-59.733H331.8V323.267z
		"/>
	<path d="M425.667,263.533H306.2c-3.413,0-5.973-1.707-7.68-5.12c-1.707-2.56-0.853-6.827,0.853-9.387l59.733-76.8
		c3.413-4.267,10.24-4.267,13.653,0l59.733,76.8c1.707,2.56,2.56,5.973,0.853,9.387C431.64,261.827,429.08,263.533,425.667,263.533z
		 M323.267,246.467H408.6l-42.667-54.613L323.267,246.467z"/>
</g>
<g>
</g>
<g>
</g>
<g>
</g>
<g>
</g>
<g>
</g>
<g>
</g>
<g>
</g>
<g>
</g>
<g>
</g>
<g>
</g>
<g>
</g>
<g>
</g>
<g>
</g>
<g>
</g>
<g>
</g>
</svg>
