<?xml version="1.0" encoding="iso-8859-1"?>
<!-- Generator: Adobe Illustrator 19.0.0, SVG Export Plug-In . SVG Version: 6.00 Build 0)  -->
<svg version="1.1" id="Layer_1" xmlns="http://www.w3.org/2000/svg" xmlns:xlink="http://www.w3.org/1999/xlink" x="0px" y="0px"
	 viewBox="0 0 512 512" style="enable-background:new 0 0 512 512;" xml:space="preserve">
<g transform="translate(1 1)">
	<path style="fill:#FCC309;" d="M391.533,502.467H118.467c-23.893,0-42.667-18.773-42.667-42.667V50.2
		c0-23.893,18.773-42.667,42.667-42.667h273.067c23.893,0,42.667,18.773,42.667,42.667v409.6
		C434.2,483.693,415.427,502.467,391.533,502.467"/>
	<path style="fill:#FD9808;" d="M391.533,7.533h-17.067c23.893,0,42.667,18.773,42.667,42.667v409.6
		c0,23.893-18.773,42.667-42.667,42.667h17.067c23.893,0,42.667-18.773,42.667-42.667V50.2
		C434.2,26.307,415.427,7.533,391.533,7.533"/>
	<path style="fill:#FFFFFF;" d="M118.467,7.533h17.067c-23.04,0-42.667,18.773-42.667,42.667v409.6
		c0,23.893,18.773,42.667,42.667,42.667h-17.067c-23.893,0-42.667-18.773-42.667-42.667V50.2
		C75.8,26.307,95.427,7.533,118.467,7.533"/>
	<path style="fill:#FFDD09;" d="M109.933,447V63c0-11.947,9.387-21.333,21.333-21.333h247.467c11.947,0,21.333,9.387,21.333,21.333
		v384c0,11.947-9.387,21.333-21.333,21.333H131.267C119.32,468.333,109.933,458.947,109.933,447"/>
	<path style="fill:#FD9808;" d="M378.733,41.667h-25.6c11.947,0,21.333,9.387,21.333,21.333v384
		c0,11.947-9.387,21.333-21.333,21.333h25.6c11.947,0,21.333-9.387,21.333-21.333V63C400.067,51.053,390.68,41.667,378.733,41.667"
		/>
	<path style="fill:#FCC309;" d="M178.2,229.4h153.6V75.8H178.2V229.4z"/>
	<path style="fill:#FD9808;" d="M306.2,229.4h25.6V75.8h-25.6V229.4z"/>
	<path style="fill:#FCC309;" d="M178.2,434.2h153.6V280.6H178.2V434.2z"/>
	<path style="fill:#FD9808;" d="M306.2,434.2h25.6V280.6h-25.6V434.2z"/>
	<path d="M391.533,511H118.467c-28.16,0-51.2-23.04-51.2-51.2V50.2c0-28.16,23.04-51.2,51.2-51.2h273.067
		c28.16,0,51.2,23.04,51.2,51.2v409.6C442.733,487.96,419.693,511,391.533,511z M118.467,16.067
		c-18.773,0-34.133,15.36-34.133,34.133v409.6c0,18.773,15.36,34.133,34.133,34.133h273.067c18.773,0,34.133-15.36,34.133-34.133
		V50.2c0-18.773-15.36-34.133-34.133-34.133H118.467z"/>
	<path d="M378.733,476.867H131.267c-16.213,0-29.867-13.653-29.867-29.867V63c0-16.213,13.653-29.867,29.867-29.867h247.467
		c16.213,0,29.867,13.653,29.867,29.867v384C408.6,463.213,394.947,476.867,378.733,476.867z M131.267,50.2
		c-6.827,0-12.8,5.973-12.8,12.8v384c0,6.827,5.973,12.8,12.8,12.8h247.467c6.827,0,12.8-5.973,12.8-12.8V63
		c0-6.827-5.973-12.8-12.8-12.8H131.267z"/>
	<path d="M331.8,237.933H178.2c-5.12,0-8.533-3.413-8.533-8.533V75.8c0-5.12,3.413-8.533,8.533-8.533h153.6
		c5.12,0,8.533,3.413,8.533,8.533v153.6C340.333,234.52,336.92,237.933,331.8,237.933z M186.733,220.867h136.533V84.333H186.733
		V220.867z"/>
	<path d="M331.8,442.733H178.2c-5.12,0-8.533-3.413-8.533-8.533V280.6c0-5.12,3.413-8.533,8.533-8.533h153.6
		c5.12,0,8.533,3.413,8.533,8.533v153.6C340.333,439.32,336.92,442.733,331.8,442.733z M186.733,425.667h136.533V289.133H186.733
		V425.667z"/>
	<path d="M220.867,144.067c-5.12,0-8.533-3.413-8.533-8.533v-25.6c0-5.12,3.413-8.533,8.533-8.533c5.12,0,8.533,3.413,8.533,8.533
		v25.6C229.4,140.653,225.987,144.067,220.867,144.067z"/>
	<path d="M289.133,144.067c-5.12,0-8.533-3.413-8.533-8.533v-25.6c0-5.12,3.413-8.533,8.533-8.533c5.12,0,8.533,3.413,8.533,8.533
		v25.6C297.667,140.653,294.253,144.067,289.133,144.067z"/>
	<path d="M255,203.8c-5.12,0-8.533-3.413-8.533-8.533V178.2c0-5.12,3.413-8.533,8.533-8.533s8.533,3.413,8.533,8.533v17.067
		C263.533,200.387,260.12,203.8,255,203.8z"/>
	<path d="M220.867,348.867c-5.12,0-8.533-3.413-8.533-8.533v-25.6c0-5.12,3.413-8.533,8.533-8.533c5.12,0,8.533,3.413,8.533,8.533
		v25.6C229.4,345.453,225.987,348.867,220.867,348.867z"/>
	<path d="M289.133,348.867c-5.12,0-8.533-3.413-8.533-8.533v-25.6c0-5.12,3.413-8.533,8.533-8.533c5.12,0,8.533,3.413,8.533,8.533
		v25.6C297.667,345.453,294.253,348.867,289.133,348.867z"/>
	<path d="M255,408.6c-5.12,0-8.533-3.413-8.533-8.533V383c0-5.12,3.413-8.533,8.533-8.533s8.533,3.413,8.533,8.533v17.067
		C263.533,405.187,260.12,408.6,255,408.6z"/>
</g>
<g>
</g>
<g>
</g>
<g>
</g>
<g>
</g>
<g>
</g>
<g>
</g>
<g>
</g>
<g>
</g>
<g>
</g>
<g>
</g>
<g>
</g>
<g>
</g>
<g>
</g>
<g>
</g>
<g>
</g>
</svg>
