<?xml version="1.0"?><svg width="640" height="480" xmlns="http://www.w3.org/2000/svg">
 <title>gymming</title>
 <g>
  <title>Layer 1</title>
  <switch>
   <g id="svg_1">
    <linearGradient gradientUnits="userSpaceOnUse" id="XMLID_1_" x1="424.3672" x2="455.1484" y1="227.7358" y2="227.7358">
     <stop offset="0" stop-color="#E5E5E5"/>
     <stop offset="0.1696" stop-color="#E2E2E2"/>
     <stop offset="0.3059" stop-color="#D8D8D8"/>
     <stop offset="0.4306" stop-color="#C7C7C7"/>
     <stop offset="0.5484" stop-color="#B0B0B0"/>
     <stop offset="0.6614" stop-color="#919191"/>
     <stop offset="0.7707" stop-color="#6B6B6B"/>
     <stop offset="0.8772" stop-color="#3E3E3E"/>
     <stop offset="0.9788" stop-color="#0C0C0C"/>
     <stop offset="1" stop-color="#000000"/>
    </linearGradient>
    <linearGradient gradientUnits="userSpaceOnUse" id="XMLID_2_" x1="30.8516" x2="0.0713" y1="227.376" y2="227.376">
     <stop offset="0" stop-color="#E5E5E5"/>
     <stop offset="0.2675" stop-color="#E2E2E2"/>
     <stop offset="0.4824" stop-color="#D8D8D8"/>
     <stop offset="0.679" stop-color="#C7C7C7"/>
     <stop offset="0.8635" stop-color="#B0B0B0"/>
     <stop offset="1" stop-color="#999999"/>
    </linearGradient>
    <linearGradient gradientUnits="userSpaceOnUse" id="XMLID_3_" x1="227.7358" x2="227.7358" y1="30.8521" y2="0.0718">
     <stop offset="0" stop-color="#E5E5E5"/>
     <stop offset="0.2675" stop-color="#E2E2E2"/>
     <stop offset="0.4824" stop-color="#D8D8D8"/>
     <stop offset="0.679" stop-color="#C7C7C7"/>
     <stop offset="0.8635" stop-color="#B0B0B0"/>
     <stop offset="1" stop-color="#999999"/>
    </linearGradient>
    <linearGradient gradientUnits="userSpaceOnUse" id="XMLID_4_" x1="227.376" x2="227.376" y1="423.8994" y2="454.6797">
     <stop offset="0" stop-color="#E5E5E5"/>
     <stop offset="0.1696" stop-color="#E2E2E2"/>
     <stop offset="0.3059" stop-color="#D8D8D8"/>
     <stop offset="0.4306" stop-color="#C7C7C7"/>
     <stop offset="0.5484" stop-color="#B0B0B0"/>
     <stop offset="0.6614" stop-color="#919191"/>
     <stop offset="0.7707" stop-color="#6B6B6B"/>
     <stop offset="0.8772" stop-color="#3E3E3E"/>
     <stop offset="0.9788" stop-color="#0C0C0C"/>
     <stop offset="1" stop-color="#000000"/>
    </linearGradient>
   </g>
  </switch>
  <path id="svg_2" clip-rule="evenodd" d="m223.393997,0l-209.393997,0c-9.94099,0 -18,8.05901 -18,18l0,418.787994c0,9.940002 8.05901,18 18,18l418.786987,0c9.94101,0 18,-8.059998 18,-18l0,-418.787994c0,-9.94099 -8.05899,-18 -18,-18l-209.39299,0z" fill="#00007f" fill-rule="evenodd"/>
  <g id="svg_3">
   <path id="svg_4" clip-rule="evenodd" d="m168.664001,385.640991l0,-145.944c-8.531006,9.720001 -16.307999,17.712006 -23.867004,24.407013c-7.597,6.623993 -13.248001,12.061005 -21.132996,15.191986c-8.064003,3.132019 -19.296005,6.119995 -26.064003,3.276001c-6.767998,-3.096985 -11.087997,-8.855988 -14.074997,-21.167999c-2.952003,-12.527985 -3.528,-37.009003 -3.816002,-52.631989c-0.468002,-15.73201 -3.490997,-32.400009 1.620003,-40.141006c5.147995,-7.703995 23.112,-9.143997 28.764,-5.435989c5.507996,3.743988 3.239998,16.019989 4.32,27.68399c1.007996,11.699997 1.512001,25.344009 1.655998,41.76001c5.939003,-6.119995 12.132004,-12.132004 18.972,-18.432007c6.841003,-6.335999 12.779999,-15.156006 21.707993,-18.973007c8.820007,-3.814987 19.908005,-5.039993 30.924011,-3.814987c10.979996,1.223999 22.82399,10.619995 34.164001,10.835999c11.231995,-0.036011 22.608002,-7.164001 32.579987,-10.296005c9.720001,-3.095993 15.660004,4.104004 26.028015,-8.136002c10.403992,-12.455994 25.847992,-47.664001 35.783997,-65.627991c9.720001,-18.107994 14.579987,-35.280006 22.787994,-41.796005c8.171997,-6.372002 22.5,-2.736 26.062988,3.276001c3.348022,5.832001 4.356018,10.944 -5.435974,32.003998c-9.973022,21.203995 -39.779999,72.755997 -53.172028,93.852997c-13.428986,20.807999 -22.103973,31.067001 -26.567993,30.923996l0,149.184021c-37.079987,0.000977 -74.159988,0.000977 -111.23999,0.000977z" fill="#ffff00" fill-rule="evenodd"/>
   <path id="svg_5" clip-rule="evenodd" d="m228.399994,92.633003c23.945007,0 43.380005,19.43499 43.380005,43.379997c0,23.945999 -19.434998,43.380005 -43.380005,43.380005c-23.944992,0 -43.380997,-19.435013 -43.380997,-43.380005c0.001007,-23.945999 19.436005,-43.379997 43.380997,-43.379997" fill="#ffff00" fill-rule="evenodd"/>
   <path id="svg_6" clip-rule="evenodd" d="m56.381001,174.608994l0,7.596008l71.063,0l0,-7.596008l-71.063,0z" fill="#ffff00" fill-rule="evenodd"/>
   <path id="svg_7" clip-rule="evenodd" d="m130.360001,152.901001c-4.896004,0 -8.891998,3.959991 -8.891998,8.856003c0,10.727997 0,21.455994 0,32.18399c0,4.896011 3.995995,8.856003 8.891998,8.856003c1.296005,0 2.628006,0 3.923996,0c4.932999,0 8.891998,-3.959991 8.891998,-8.856003c0,-10.727997 0,-21.455994 0,-32.18399c0,-4.896011 -3.959,-8.856003 -8.891998,-8.856003c-1.29599,0 -2.627991,0 -3.923996,0z" fill="#ffff00" fill-rule="evenodd"/>
   <path id="svg_8" clip-rule="evenodd" d="m59.297001,152.901001c-4.896,0 -8.893009,3.959991 -8.893009,8.856003c0,10.727997 0,21.455994 0,32.18399c0,4.896011 3.995998,8.856003 8.893009,8.856003c1.29501,0 2.62701,0 3.959,0c4.896,0 8.855999,-3.959991 8.855999,-8.856003c0,-10.727997 0,-21.455994 0,-32.18399c0,-4.896011 -3.959999,-8.856003 -8.855999,-8.856003c-1.331989,0 -2.66399,0 -3.959,0z" fill="#ffff00" fill-rule="evenodd"/>
   <path id="svg_9" clip-rule="evenodd" d="m313.23999,73.700996l-3.023987,6.984001l65.268982,28.11599l3.02301,-6.983986l-65.268005,-28.116005z" fill="#ffff00" fill-rule="evenodd"/>
   <path id="svg_10" clip-rule="evenodd" d="m389.73999,83.025002c-4.5,-1.944 -9.720001,0.143997 -11.664001,4.643997c-4.211975,9.863998 -8.459991,19.691994 -12.707977,29.556015c-1.944,4.5 0.143982,9.719994 4.643982,11.663994c1.188019,0.503998 2.412018,1.043991 3.636993,1.547989c4.5,1.944 9.720001,-0.143997 11.628021,-4.643997c4.247986,-9.828003 8.496002,-19.692001 12.743988,-29.519997c1.942993,-4.5 -0.144989,-9.720001 -4.644989,-11.664001c-1.188019,-0.540001 -2.412018,-1.043999 -3.636017,-1.584z" fill="#ffff00" fill-rule="evenodd"/>
   <path id="svg_11" clip-rule="evenodd" d="m324.472992,54.909c-4.5,-1.908001 -9.720978,0.144001 -11.664001,4.644001c-4.212006,9.863998 -8.459991,19.692001 -12.707977,29.556c-1.944,4.5 0.143982,9.719986 4.643982,11.663986c1.188019,0.504005 2.412018,1.044014 3.636017,1.548012c4.5,1.944 9.720978,-0.143997 11.627991,-4.643997c4.247986,-9.828003 8.496002,-19.692001 12.743988,-29.520004c1.944,-4.499996 -0.143982,-9.719997 -4.643982,-11.663998c-1.188995,-0.504002 -2.412994,-1.043999 -3.636017,-1.584z" fill="#ffff00" fill-rule="evenodd"/>
   <path id="svg_12" clip-rule="evenodd" d="m167.296997,381.428986l0,-145.944c-8.460999,9.684021 -16.380997,17.78302 -23.903992,24.443024c-7.561005,6.552002 -13.356003,12.023987 -21.133003,15.156006c-8.063004,3.131989 -19.295006,6.119995 -26.063004,3.27597c-6.768997,-3.096985 -11.087997,-8.855988 -14.075996,-21.167999c-2.952003,-12.527985 -3.528,-37.008987 -3.815002,-52.63298c-0.469002,-15.731003 -3.491997,-32.399002 1.619003,-40.139999c5.147995,-7.70401 23.112,-9.144012 28.764,-5.436005c5.473,3.744003 3.312996,16.020004 4.356995,27.684006c0.936005,11.699997 1.475006,25.343994 1.619003,41.759995c5.938995,-6.119995 12.132996,-12.132004 18.973,-18.432007c6.839996,-6.335999 12.779007,-15.155991 21.707001,-18.972c8.819992,-3.815994 19.908005,-5.039993 30.923996,-3.815994c10.979996,1.223999 22.824005,10.619995 34.164001,10.835999c11.231995,-0.035995 22.608002,-7.164001 32.580002,-10.296005c9.721008,-3.095993 15.660004,4.104004 26.027985,-8.136002c10.404022,-12.455994 25.84903,-47.663986 35.784027,-65.627991c9.720001,-18.108002 14.579987,-35.279999 22.787994,-41.796005c8.171997,-6.371994 22.5,-2.736 26.062988,3.276001c3.348999,5.832001 4.356018,10.944 -5.436005,32.00399c-9.971985,21.204018 -39.779999,72.75602 -53.171997,93.852013c-13.427979,20.809006 -22.104004,31.067993 -26.567993,30.924988l0,149.184021c-37.044006,0.000977 -74.123993,0.000977 -111.203003,0.000977z" fill="#ffff00" fill-rule="evenodd"/>
   <path id="svg_13" clip-rule="evenodd" d="m226.960007,88.397003c23.945999,0 43.37999,19.449997 43.37999,43.416c0,23.964996 -19.43399,43.416 -43.37999,43.416c-23.945007,0 -43.380005,-19.451004 -43.380005,-43.416c0,-23.966003 19.434998,-43.416 43.380005,-43.416" fill="#ffff00" fill-rule="evenodd"/>
   <path id="svg_14" clip-rule="evenodd" d="m54.977009,170.397003l0,7.595993l71.062984,0l0,-7.595993l-71.062984,0z" fill="#ffff00" fill-rule="evenodd"/>
   <path id="svg_15" clip-rule="evenodd" d="m128.955994,148.688995c-4.895996,0 -8.891991,3.960007 -8.891991,8.856003c0,10.727997 0,21.456009 0,32.184006c0,4.895996 3.995995,8.891998 8.891991,8.891998c1.296005,0 2.628006,0 3.960007,0c4.895996,0 8.856003,-3.996002 8.856003,-8.891998c0,-10.727997 0,-21.456009 0,-32.184006c0,-4.895996 -3.960007,-8.856003 -8.856003,-8.856003c-1.332001,0 -2.664001,0 -3.960007,0z" fill="#ffff00" fill-rule="evenodd"/>
   <path id="svg_16" clip-rule="evenodd" d="m57.893009,148.688995c-4.896,0 -8.893009,3.960007 -8.893009,8.856003c0,10.727997 0,21.456009 0,32.184006c0,4.895996 3.995998,8.891998 8.893009,8.891998c1.294991,0 2.62698,0 3.958981,0c4.896011,0 8.85601,-3.996002 8.85601,-8.891998c0,-10.727997 0,-21.456009 0,-32.184006c0,-4.895996 -3.959999,-8.856003 -8.85601,-8.856003c-1.332001,0 -2.66399,0 -3.958981,0z" fill="#ffff00" fill-rule="evenodd"/>
   <path id="svg_17" clip-rule="evenodd" d="m311.835999,69.488998l-3.02301,6.984001l65.268005,28.115997l3.024017,-6.983994l-65.269012,-28.116005z" fill="#ffff00" fill-rule="evenodd"/>
   <path id="svg_18" clip-rule="evenodd" d="m388.335999,78.813004c-4.5,-1.908005 -9.720001,0.143997 -11.664001,4.643997c-4.212006,9.863998 -8.459991,19.692001 -12.708008,29.556c-1.942993,4.5 0.14502,9.720001 4.64502,11.664001c1.187988,0.503998 2.411987,1.043991 3.635986,1.548012c4.5,1.943993 9.720001,-0.14402 11.627991,-4.64402c4.248016,-9.82798 8.496002,-19.691986 12.744019,-29.519997c1.944,-4.5 -0.144012,-9.719994 -4.644012,-11.663994c-1.188995,-0.540001 -2.411987,-1.044006 -3.636993,-1.584z" fill="#ffff00" fill-rule="evenodd"/>
   <path id="svg_19" clip-rule="evenodd" d="m323.067993,50.733002c-4.5,-1.944 -9.720001,0.107998 -11.664001,4.607998c-4.212006,9.864002 -8.459991,19.691998 -12.707977,29.556004c-1.944,4.5 0.143982,9.719994 4.643982,11.664009c1.188019,0.50399 2.412018,1.043991 3.636993,1.547981c4.5,1.944 9.720001,-0.143997 11.628021,-4.607994c4.247986,-9.863998 8.496002,-19.727997 12.743988,-29.556c1.942993,-4.5 -0.144989,-9.720001 -4.644989,-11.664001c-1.187012,-0.503998 -2.412018,-1.043999 -3.636017,-1.547997z" fill="#ffff00" fill-rule="evenodd"/>
  </g>
 </g>
</svg>