<?xml version="1.0" encoding="iso-8859-1"?>
<!-- Generator: Adobe Illustrator 19.0.0, SVG Export Plug-In . SVG Version: 6.00 Build 0)  -->
<svg version="1.1" id="Layer_1" xmlns="http://www.w3.org/2000/svg" xmlns:xlink="http://www.w3.org/1999/xlink" x="0px" y="0px"
	 viewBox="0 0 496.246 496.246" style="enable-background:new 0 0 496.246 496.246;" xml:space="preserve">
<path style="fill:#EFB706;" d="M300.52,199.751l66.473,66.473c10.642,10.657,27.939,10.657,38.597,0l66.473-66.473
	c10.665-10.665,10.665-27.955,0-38.613c-10.657-10.657-27.939-10.657-38.589,0l-26.719,26.703v-69.829
	c0-11.296-9.161-20.456-20.464-20.456c-11.303,0-20.472,9.161-20.472,20.456v69.829l-26.703-26.703
	c-5.325-5.325-12.312-7.979-19.298-7.979s-13.966,2.655-19.291,7.979C289.863,171.804,289.863,189.086,300.52,199.751z"/>
<path style="fill:#F26403;" d="M366.994,266.232c10.642,10.657,27.939,10.657,38.597,0l59.652-59.652l-38.597-38.613l-19.889,19.873
	v-39.755l-38.873-38.865c-1.284,2.662-2.064,5.624-2.064,8.783v69.829l-26.703-26.703c-5.325-5.325-12.312-7.979-19.298-7.979
	s-13.966,2.655-19.291,7.979c-10.665,10.665-10.665,27.947,0,38.613L366.994,266.232z"/>
<path style="fill:#EFB706;" d="M24.174,199.751l66.473,66.473c10.657,10.657,27.955,10.657,38.597,0l66.473-66.473
	c10.665-10.665,10.665-27.955,0-38.613c-10.642-10.657-27.939-10.657-38.589,0l-26.703,26.703v-69.829
	c0-11.296-9.169-20.456-20.472-20.456c-11.311,0-20.464,9.161-20.464,20.456v69.829l-26.719-26.703
	c-5.317-5.325-12.312-7.979-19.283-7.979c-6.995,0-13.982,2.655-19.306,7.979C13.517,171.804,13.517,189.086,24.174,199.751z"/>
<g>
	<path style="fill:#F26403;" d="M90.648,266.232c10.657,10.657,27.955,10.657,38.597,0l59.66-59.652l-38.597-38.613l-19.881,19.873
		v-39.755l-38.88-38.865c-1.284,2.662-2.056,5.624-2.056,8.783v69.829L62.771,161.13c-5.317-5.325-12.312-7.979-19.283-7.979
		c-6.995,0-13.982,2.655-19.306,7.979c-10.657,10.665-10.657,27.947,0,38.613L90.648,266.232z"/>
	<path style="fill:#F26403;" d="M473.608,353.438H22.638C10.114,353.438,0,363.575,0,376.068c0,12.509,10.114,22.623,22.638,22.623
		h450.97c12.524,0,22.638-10.114,22.638-22.623C496.246,363.575,486.132,353.438,473.608,353.438z"/>
</g>
<g>
</g>
<g>
</g>
<g>
</g>
<g>
</g>
<g>
</g>
<g>
</g>
<g>
</g>
<g>
</g>
<g>
</g>
<g>
</g>
<g>
</g>
<g>
</g>
<g>
</g>
<g>
</g>
<g>
</g>
</svg>
