<?xml version="1.0" encoding="iso-8859-1"?>
<!-- Generator: Adobe Illustrator 19.0.0, SVG Export Plug-In . SVG Version: 6.00 Build 0)  -->
<svg version="1.1" id="Layer_1" xmlns="http://www.w3.org/2000/svg" xmlns:xlink="http://www.w3.org/1999/xlink" x="0px" y="0px"
	 viewBox="0 0 512 512" style="enable-background:new 0 0 512 512;" xml:space="preserve">
<rect x="37.24" y="40.165" style="fill:#E7AD7C;" width="437.52" height="456.238"/>
<path d="M319.171,173.924c-1.014,0-2.045-0.109-3.057-0.312c-0.983-0.203-1.965-0.499-2.917-0.889
	c-0.937-0.39-1.841-0.873-2.683-1.435c-0.859-0.562-1.655-1.217-2.372-1.934c-2.917-2.901-4.57-6.925-4.57-11.043
	c0-4.102,1.653-8.126,4.57-11.028c0.718-0.717,1.513-1.373,2.372-1.934c0.842-0.562,1.745-1.045,2.683-1.435
	c0.951-0.39,1.934-0.686,2.917-0.889c2.012-0.406,4.087-0.406,6.099,0c0.998,0.203,1.981,0.499,2.915,0.889
	c0.951,0.39,1.856,0.873,2.698,1.435c0.858,0.562,1.653,1.217,2.371,1.934c2.901,2.917,4.572,6.925,4.572,11.028
	c0,4.118-1.669,8.126-4.572,11.043c-0.718,0.718-1.513,1.373-2.371,1.934c-0.842,0.562-1.747,1.045-2.698,1.435
	c-0.936,0.39-1.917,0.686-2.915,0.889C321.215,173.815,320.184,173.924,319.171,173.924z"/>
<g>
	<circle style="fill:#FF4444;" cx="124.221" cy="100.481" r="34.44"/>
	<circle style="fill:#FF4444;" cx="255.992" cy="100.481" r="34.44"/>
	<circle style="fill:#FF4444;" cx="387.763" cy="100.481" r="34.44"/>
</g>
<rect x="96.382" y="219.665" style="fill:#F4D15A;" width="319.242" height="214.206"/>
<path d="M149.545,304.151c-1.014,0-2.045-0.094-3.042-0.296c-0.998-0.203-1.981-0.499-2.917-0.889
	c-0.951-0.39-1.855-0.874-2.697-1.435c-0.859-0.577-1.655-1.217-2.372-1.934c-0.717-0.733-1.373-1.529-1.934-2.371
	c-0.577-0.858-1.045-1.763-1.435-2.698c-0.39-0.936-0.702-1.919-0.905-2.917c-0.203-1.014-0.295-2.028-0.295-3.042
	c0-1.029,0.094-2.043,0.295-3.057c0.203-0.998,0.515-1.981,0.905-2.917c0.39-0.936,0.858-1.841,1.435-2.698
	c0.562-0.842,1.217-1.653,1.934-2.371c0.718-0.718,1.513-1.373,2.372-1.934c0.842-0.562,1.745-1.045,2.697-1.435
	c0.937-0.39,1.919-0.686,2.917-0.889c5.054-1.014,10.451,0.64,14.069,4.258c0.719,0.717,1.374,1.529,1.934,2.371
	c0.562,0.858,1.045,1.763,1.435,2.698c0.39,0.936,0.702,1.919,0.889,2.917c0.203,1.014,0.312,2.028,0.312,3.057
	c0,1.014-0.109,2.028-0.312,3.042c-0.187,0.998-0.499,1.981-0.889,2.917c-0.39,0.936-0.873,1.841-1.435,2.698
	c-0.56,0.842-1.215,1.638-1.934,2.371c-0.717,0.717-1.513,1.357-2.371,1.934c-0.842,0.562-1.747,1.045-2.698,1.435
	c-0.936,0.39-1.917,0.686-2.915,0.889C151.588,304.057,150.557,304.151,149.545,304.151z"/>
<path d="M474.76,24.567h-47.402c1.789-2.538,2.85-5.628,2.85-8.969C430.208,6.983,423.223,0,414.61,0h-91.895
	c-8.613,0-15.598,6.983-15.598,15.598c0,3.341,1.061,6.431,2.85,8.969H202.034c1.789-2.538,2.85-5.628,2.85-8.969
	C204.884,6.983,197.899,0,189.286,0H97.39c-8.613,0-15.598,6.983-15.598,15.598c0,3.341,1.061,6.431,2.85,8.969H37.24
	c-8.613,0-15.598,6.983-15.598,15.598v456.238c0,8.615,6.985,15.598,15.598,15.598h437.52c8.613,0,15.598-6.983,15.598-15.598
	V40.165C490.358,31.55,483.373,24.567,474.76,24.567z M406.611,100.485c0,10.388-8.451,18.839-18.839,18.839
	s-18.839-8.451-18.839-18.839s8.451-18.839,18.839-18.839S406.611,90.096,406.611,100.485z M256,119.324
	c-10.388,0-18.839-8.451-18.839-18.839S245.612,81.645,256,81.645s18.839,8.451,18.839,18.839S266.388,119.324,256,119.324z
	 M229.226,142.72h-78.223c13.968-8.886,23.261-24.492,23.261-42.236c0-19.541-11.266-36.49-27.638-44.722h86.977
	c-16.372,8.233-27.638,25.181-27.638,44.722C205.965,118.229,215.258,133.834,229.226,142.72z M124.229,81.645
	c10.388,0,18.839,8.451,18.839,18.839s-8.451,18.839-18.839,18.839s-18.839-8.451-18.839-18.839S113.839,81.645,124.229,81.645z
	 M101.832,55.762c-16.372,8.233-27.638,25.181-27.638,44.722c0,17.744,9.293,33.35,23.261,42.236H52.838V55.762H101.832z
	 M459.162,480.804H52.838V173.916h219.537c8.613,0,15.598-6.983,15.598-15.598c0-5.971-3.358-11.152-8.286-13.774
	c15.673-8.46,26.348-25.036,26.348-44.061c0-19.541-11.266-36.49-27.638-44.722h86.978c-16.372,8.233-27.638,25.181-27.638,44.722
	c0,27.59,22.447,50.035,50.035,50.035c27.588,0,50.035-22.445,50.035-50.035c0-19.541-11.266-36.49-27.638-44.722h48.994v425.043
	H459.162z"/>
<path d="M415.618,204.072H96.382c-8.613,0-15.598,6.983-15.598,15.598v214.21c0,8.615,6.985,15.598,15.598,15.598h319.235
	c8.613,0,15.598-6.983,15.598-15.598v-214.21C431.216,211.056,424.231,204.072,415.618,204.072z M111.98,418.283V235.267h288.04
	v37.695H196.338c-8.613,0-15.598,6.983-15.598,15.598c0,8.615,6.985,15.598,15.598,15.598H400.02v114.125H111.98z"/>
<g>
</g>
<g>
</g>
<g>
</g>
<g>
</g>
<g>
</g>
<g>
</g>
<g>
</g>
<g>
</g>
<g>
</g>
<g>
</g>
<g>
</g>
<g>
</g>
<g>
</g>
<g>
</g>
<g>
</g>
</svg>
