<?xml version="1.0" encoding="iso-8859-1"?>
<!-- Generator: Adobe Illustrator 19.0.0, SVG Export Plug-In . SVG Version: 6.00 Build 0)  -->
<svg version="1.1" id="Layer_1" xmlns="http://www.w3.org/2000/svg" xmlns:xlink="http://www.w3.org/1999/xlink" x="0px" y="0px"
	 viewBox="0 0 511.98 511.98" style="enable-background:new 0 0 511.98 511.98;" xml:space="preserve">
<path style="fill:#424953;" d="M394.485,255.99c3.25,0,6.5,0.75,9.25,2.125c-2.5-24.749-8.5-70.623-21.75-117.121
	c-11.499-39.874-26.249-71.873-43.498-95.122C315.488,15.499,287.489,0,255.74,0c-31.999,0-59.747,15.5-82.747,45.873
	c-17.249,23.249-31.998,55.248-43.498,95.122c-13.249,46.498-19.249,92.372-21.749,117.121c2.75-1.375,6-2.125,9.25-2.125
	c4.499,0,8.749,1.375,11.999,3.875c2.5-24.124,8.25-68.748,21-112.871c10.749-37.499,24.248-67.123,40.248-88.247
	c18.749-25.124,40.248-37.374,65.497-37.374c25.25,0,46.499,12.125,65.498,37.249c15.999,21,29.499,50.623,40.248,87.997
	c12.749,44.248,18.499,89.122,20.999,113.246C385.735,257.365,389.985,255.99,394.485,255.99z"/>
<g>
	<path style="fill:#FECD57;" d="M116.996,245.365c-17.75,0-31.999,14.25-31.999,32c0,17.624,14.249,31.998,31.999,31.998
		c17.499,0,31.999-14.374,31.999-31.998C148.995,259.615,134.495,245.365,116.996,245.365z M116.996,287.989
		c-6,0-10.75-4.749-10.75-10.624s4.75-10.75,10.75-10.75c5.749,0,10.499,4.875,10.499,10.75S122.745,287.989,116.996,287.989z"/>
	<path style="fill:#FECD57;" d="M394.485,245.365c-17.5,0-31.999,14.25-31.999,32c0,17.624,14.499,31.998,31.999,31.998
		c17.75,0,31.999-14.374,31.999-31.998C426.484,259.615,412.235,245.365,394.485,245.365z M394.485,287.989
		c-5.75,0-10.5-4.749-10.5-10.624s4.75-10.75,10.5-10.75c6,0,10.75,4.875,10.75,10.75S400.485,287.989,394.485,287.989z"/>
</g>
<path style="fill:#D94452;" d="M447.982,501.356c0,5.874-4.999,10.624-10.748,10.624H74.497c-5.75,0-10.499-4.75-10.499-10.624
	V287.989c0-5.874,4.749-10.624,10.499-10.624h362.737c5.749,0,10.748,4.75,10.748,10.624V501.356z"/>
<path style="fill:#EC5564;" d="M74.247,277.365c-6,0-7.999,4-4.75,8.875l73.748,110.245c3.25,4.875,10.749,8.875,16.499,8.875
	h191.993c5.749,0,13.249-4,16.499-8.875l73.747-110.245c3.249-4.875,1-8.875-4.749-8.875H74.247z"/>
<rect x="212.99" y="383.99" style="fill:#FECD57;" width="85.5" height="42.624"/>
<path style="fill:#F5BA45;" d="M298.489,373.36h-85.497c-5.75,0-10.5,4.75-10.5,10.625v42.624c0,6,4.75,10.75,10.5,10.75h85.497
	c5.749,0,10.499-4.75,10.499-10.75v-42.624C308.988,378.11,304.238,373.36,298.489,373.36z M287.739,415.985h-63.998V394.61h63.998
	V415.985z"/>
<g>
</g>
<g>
</g>
<g>
</g>
<g>
</g>
<g>
</g>
<g>
</g>
<g>
</g>
<g>
</g>
<g>
</g>
<g>
</g>
<g>
</g>
<g>
</g>
<g>
</g>
<g>
</g>
<g>
</g>
</svg>
