<?xml version="1.0" encoding="UTF-8" standalone="no"?>
<!-- Created with Inkscape (http://www.inkscape.org/) -->

<svg
   xmlns:dc="http://purl.org/dc/elements/1.1/"
   xmlns:cc="http://creativecommons.org/ns#"
   xmlns:rdf="http://www.w3.org/1999/02/22-rdf-syntax-ns#"
   xmlns:svg="http://www.w3.org/2000/svg"
   xmlns="http://www.w3.org/2000/svg"
   xmlns:sodipodi="http://sodipodi.sourceforge.net/DTD/sodipodi-0.dtd"
   xmlns:inkscape="http://www.inkscape.org/namespaces/inkscape"
   height="550.00000pt"
   id="svg13535"
   inkscape:version="0.48.4 r9939"
   sodipodi:docname="Feet.svg"
   sodipodi:version="0.32"
   width="210mm"
   version="1.1">
  <metadata
     id="metadata3">
    <rdf:RDF>
      <cc:Work
         rdf:about="">
        <dc:title></dc:title>
        <dc:description />
        <dc:subject>
          <rdf:Bag>
            <rdf:li>feet</rdf:li>
            <rdf:li>people</rdf:li>
            <rdf:li>clothing</rdf:li>
            <rdf:li>sandals</rdf:li>
            <rdf:li>bodypart</rdf:li>
            <rdf:li>shoes</rdf:li>
          </rdf:Bag>
        </dc:subject>
        <dc:publisher>
          <cc:Agent
             rdf:about="http://www.openclipart.org">
            <dc:title>Jonadab the Unsightly One</dc:title>
          </cc:Agent>
        </dc:publisher>
        <dc:creator>
          <cc:Agent>
            <dc:title>Jonadab the Unsightly One</dc:title>
          </cc:Agent>
        </dc:creator>
        <dc:rights>
          <cc:Agent>
            <dc:title>Jonadab the Unsightly One</dc:title>
          </cc:Agent>
        </dc:rights>
        <dc:date />
        <dc:format>image/svg+xml</dc:format>
        <dc:type
           rdf:resource="http://purl.org/dc/dcmitype/StillImage" />
        <cc:license
           rdf:resource="http://web.resource.org/cc/PublicDomain" />
        <dc:language>en</dc:language>
      </cc:Work>
      <cc:License
         rdf:about="http://web.resource.org/cc/PublicDomain">
        <cc:permits
           rdf:resource="http://web.resource.org/cc/Reproduction" />
        <cc:permits
           rdf:resource="http://web.resource.org/cc/Distribution" />
        <cc:permits
           rdf:resource="http://web.resource.org/cc/DerivativeWorks" />
      </cc:License>
    </rdf:RDF>
  </metadata>
  <defs
     id="defs3" />
  <sodipodi:namedview
     bordercolor="#666666"
     borderopacity="1.0"
     id="base"
     inkscape:current-layer="layer1"
     inkscape:cx="283.18584"
     inkscape:cy="334.70888"
     inkscape:pageopacity="0.0"
     inkscape:pageshadow="2"
     inkscape:window-height="536"
     inkscape:window-width="640"
     inkscape:window-x="96"
     inkscape:window-y="96"
     inkscape:zoom="0.43415836"
     pagecolor="#ffffff"
     showgrid="false"
     inkscape:window-maximized="0" />
  <g
     id="layer1"
     inkscape:groupmode="layer"
     inkscape:label="Layer 1">
    <path
       inkscape:connector-curvature="0"
       style="fill:#c6ac72;fill-opacity:1;fill-rule:evenodd;stroke:#000000;stroke-width:2.55323009pt;stroke-linecap:butt;stroke-linejoin:miter;stroke-opacity:1"
       sodipodi:nodetypes="ccsssscsccssssssscc"
       id="path13337"
       d="m 284.6787,21.002958 c -1.64469,133.383592 9.12289,272.409012 8.60663,411.434532 -0.53209,9.57461 -69.11369,53.20328 -110.90588,97.34189 -10.3943,10.97777 -43.18482,5.22074 -58.24561,8.77678 -11.61883,2.74329 -21.87495,5.97466 -31.911899,10.05462 -1.254657,0.50962 -17.285673,5.06132 -18.693218,9.18877 -1.382012,4.05279 -1.636927,8.16829 19.402608,1.73364 -20.32943,4.08517 -26.09442,8.13408 -28.335747,14.23783 -2.24143,6.10375 1.579632,13.13392 13.680819,16.69333 -15.912955,3.80002 -6.768919,0.2114 -6.906691,6.5475 1.535308,10.62419 4.093134,16.54544 19.252988,15.74751 13.90254,-0.73125 24.07093,-1.70107 37.82273,-1.40214 10.71673,0.23286 25.5083,7.35841 35.58263,2.9979 0,0 71.01166,-34.30897 102.1292,-35.90474 29.48297,-1.51192 108.51228,5.58514 108.51228,5.58514 42.81981,-1.06388 42.81879,-22.11445 39.89422,-41.48999 -3.45851,-22.91238 -11.64181,-45.75337 -11.17038,-68.61806 0.59234,-28.7318 9.57461,-57.44767 14.36191,-86.17151 14.927,-119.08612 12.92844,-231.4022 -4.86747,-361.772161" />
    <path
       d="m 76.02711,609.33415 c -6.117131,-9.30867 -8.481116,-20.65492 -6.947237,-27.78905 4.031652,-18.75113 26.302967,-10.62124 39.894217,-14.36192 15.39853,-4.23816 31.38339,-6.38308 47.07513,-9.57461"
       id="path13352"
       sodipodi:nodetypes="csss"
       style="fill:#c6ac72;fill-opacity:1;fill-rule:evenodd;stroke:#000000;stroke-width:2.55323009pt;stroke-linecap:butt;stroke-linejoin:miter;stroke-opacity:1"
       inkscape:connector-curvature="0" />
    <path
       d="m 71.739113,575.38957 c 7.992733,1.97466 18.242113,4.23152 26.516928,5.07766 2.538929,-3.103 3.949339,-7.61649 2.538829,-11.56583"
       id="path13354"
       sodipodi:nodetypes="ccc"
       style="fill:none;stroke:#000000;stroke-width:1.27661502;stroke-linecap:butt;stroke-linejoin:miter;stroke-miterlimit:4;stroke-opacity:1"
       inkscape:connector-curvature="0" />
    <path
       inkscape:connector-curvature="0"
       style="fill:#c6ac72;fill-opacity:1;fill-rule:evenodd;stroke:#000000;stroke-width:2.55322876pt;stroke-linecap:butt;stroke-linejoin:miter;stroke-opacity:1"
       sodipodi:nodetypes="ccssssssscc"
       id="path13374"
       d="m 535.75181,45.276541 c -6.90018,133.446609 13.02055,272.308549 12.08358,411.346879 -0.45116,9.57877 -68.66154,53.78548 -110.07917,98.2757 -10.30115,11.06521 -43.13914,5.58553 -58.16932,9.26872 -11.59523,2.8414 30.49628,79.90455 40.53339,75.45906 0,0 67.5248,-12.31251 101.39608,-20.40092 28.71439,-6.85691 108.98151,-11.69784 108.98151,-11.69784 42.80927,-1.42573 42.63034,-22.47553 39.54212,-41.82565 -3.65202,-22.88232 -12.02807,-45.65332 -11.7499,-68.52116 0.3495,-28.73577 9.08874,-57.52652 13.63311,-86.28978 5.92796,-120.73623 10.97226,-231.50307 -7.92483,-361.717914" />
    <g
       id="g13418"
       transform="matrix(10.21255,-0.08631498,0.08631498,10.21255,-3802.942,-6112.528)">
      <path
         d="m 405.28346,657.02911 c -1.12327,0.11049 -2.25119,0.18758 -3.3698,0.33146 -0.65557,0.0843 -1.18114,0.29726 -1.95272,0.35317 -1.24315,0.0901 -3.23559,0.31903 -3.24218,1.17188 -0.01,1.25248 0.95491,2.68395 2.14843,2.42187 3.78966,-0.83216 5.95052,-1.69271 9.29688,-2.14844"
         id="path13403"
         sodipodi:nodetypes="csssss"
         style="fill:#c6ac72;fill-opacity:1;fill-rule:evenodd;stroke:#000000;stroke-width:0.25pt;stroke-linecap:butt;stroke-linejoin:miter;stroke-opacity:1"
         inkscape:connector-curvature="0" />
      <path
         d="m 396.71177,659.39312 c 1.07723,-0.0138 2.11303,-0.23478 3.14883,-0.58005 0.23018,-0.2624 0.32225,-0.63529 0.27622,-1.07723"
         id="path13417"
         sodipodi:nodetypes="ccc"
         style="fill:none;stroke:#000000;stroke-width:0.14375;stroke-linecap:butt;stroke-linejoin:miter;stroke-miterlimit:4;stroke-opacity:1"
         inkscape:connector-curvature="0" />
    </g>
    <g
       id="g13414"
       transform="matrix(10.21255,-0.08631498,0.08631498,10.21255,-3802.942,-6112.528)">
      <path
         d="m 406.69006,661.75993 c -2.46818,0.37537 -4.71307,1.47136 -6.90737,1.34708 -1.44503,-0.0818 -2.19532,-2.09344 -1.54909,-2.33034 2.02918,-0.74387 5.58609,-1.63409 9.2354,-1.98157"
         id="path13404"
         sodipodi:nodetypes="csss"
         style="fill:#c6ac72;fill-opacity:1;fill-rule:evenodd;stroke:#000000;stroke-width:0.25pt;stroke-linecap:butt;stroke-linejoin:miter;stroke-opacity:1"
         inkscape:connector-curvature="0" />
      <path
         d="m 398.06338,661.18825 c 0.57825,-0.009 1.2652,-0.11634 1.87777,-0.30195 0.28124,-0.0883 0.38467,-0.3222 0.38309,-0.60995"
         id="path13413"
         sodipodi:nodetypes="ccc"
         style="fill:none;stroke:#000000;stroke-width:0.125;stroke-linecap:butt;stroke-linejoin:miter;stroke-miterlimit:4;stroke-opacity:1"
         inkscape:connector-curvature="0" />
    </g>
    <g
       id="g13410"
       transform="matrix(10.21255,-0.08631498,0.08631498,10.21255,-3802.942,-6112.528)">
      <path
         d="m 407.23814,662.65934 c -2.46818,0.37537 -4.71307,1.47136 -6.90737,1.34708 -1.44503,-0.0818 -2.19532,-2.09344 -1.54909,-2.33034 2.02918,-0.74387 5.58609,-1.63409 9.2354,-1.98157"
         id="path13402"
         sodipodi:nodetypes="csss"
         style="fill:#c6ac72;fill-opacity:1;fill-rule:evenodd;stroke:#000000;stroke-width:0.25pt;stroke-linecap:butt;stroke-linejoin:miter;stroke-opacity:1"
         inkscape:connector-curvature="0" />
      <path
         d="m 398.67552,662.22682 c 0.57343,-0.0751 1.24352,-0.26066 1.83076,-0.51528 0.26927,-0.11995 0.34519,-0.36419 0.31062,-0.64986"
         id="path13409"
         sodipodi:nodetypes="ccc"
         style="fill:none;stroke:#000000;stroke-width:0.125;stroke-linecap:butt;stroke-linejoin:miter;stroke-miterlimit:4;stroke-opacity:1"
         inkscape:connector-curvature="0" />
    </g>
    <g
       id="g13406"
       transform="matrix(10.21255,-0.08631498,0.08631498,10.21255,-3802.942,-6112.528)">
      <path
         d="m 410.92017,664.1267 c -2.46818,0.37537 -4.71307,1.47136 -6.90737,1.34708 -1.44503,-0.0818 -2.19532,-2.09344 -1.54909,-2.33034 2.02918,-0.74387 5.58609,-1.63409 9.2354,-1.98157"
         id="path13398"
         sodipodi:nodetypes="csss"
         style="fill:#c6ac72;fill-opacity:1;fill-rule:evenodd;stroke:#000000;stroke-width:0.25pt;stroke-linecap:butt;stroke-linejoin:miter;stroke-opacity:1"
         transform="translate(-2.427795,-0.864735)"
         inkscape:connector-curvature="0" />
      <path
         d="m 399.95184,662.92878 c 0.57343,-0.0751 1.24352,-0.26066 1.83076,-0.51528 0.26927,-0.11995 0.34519,-0.36419 0.31062,-0.64986"
         id="path13405"
         sodipodi:nodetypes="ccc"
         style="fill:none;stroke:#000000;stroke-width:0.125;stroke-linecap:butt;stroke-linejoin:miter;stroke-miterlimit:4;stroke-opacity:1"
         inkscape:connector-curvature="0" />
    </g>
    <g
       id="g13394"
       transform="matrix(10.21255,-0.08631498,0.08631498,10.21255,-3802.942,-6112.528)">
      <path
         d="m 410.92017,664.1267 c -2.46818,0.37537 -5.21025,1.25039 -7.40455,1.12611 -1.44503,-0.0818 -1.97435,-1.87247 -1.32812,-2.10937 2.02918,-0.74387 4.97842,-1.5236 8.62773,-1.87108"
         id="path13391"
         sodipodi:nodetypes="csss"
         style="fill:#c6ac72;fill-opacity:1;fill-rule:evenodd;stroke:#000000;stroke-width:0.25pt;stroke-linecap:butt;stroke-linejoin:miter;stroke-opacity:1"
         inkscape:connector-curvature="0" />
      <path
         d="m 402.0565,663.39821 1.87825,-0.16573 0.3867,-0.60767"
         id="path13392"
         style="fill:none;stroke:#000000;stroke-width:0.125;stroke-linecap:butt;stroke-linejoin:miter;stroke-miterlimit:4;stroke-opacity:1"
         inkscape:connector-curvature="0" />
    </g>
  </g>
</svg>
