<?xml version="1.0" encoding="iso-8859-1"?>
<!-- Generator: Adobe Illustrator 19.0.0, SVG Export Plug-In . SVG Version: 6.00 Build 0)  -->
<svg version="1.1" id="Capa_1" xmlns="http://www.w3.org/2000/svg" xmlns:xlink="http://www.w3.org/1999/xlink" x="0px" y="0px"
	 viewBox="0 0 460 460" style="enable-background:new 0 0 460 460;" xml:space="preserve">
<g>
	<polygon style="fill:#FFEDAD;" points="94.997,430 94.997,60 134.997,60 134.997,30 55,30 55,460 230,460 230,430 	"/>
	<polygon style="fill:#FFD23D;" points="324.997,30 324.997,60 364.997,60 364.997,350 364.997,430 230,430 230,460 405,460 405,30 
			"/>
	<polygon style="fill:#C7FFE9;" points="229.997,90 229.997,120 334.997,120 334.997,150 229.997,150 229.997,180 334.997,180 
		334.997,210 229.997,210 229.997,310 245,310 245,340 275,340 275,370 245,370 245,400 229.997,400 229.997,430 304.997,430 
		304.997,370 364.997,370 364.997,430 364.997,350 364.997,60 324.997,60 324.997,90 	"/>
	<polygon style="fill:#FFFFFF;" points="215,400 215,370 185,370 185,340 215,340 215,310 229.997,310 229.997,270 124.997,270 
		124.997,240 229.997,240 229.997,210 124.997,210 124.997,180 229.997,180 229.997,150 124.997,150 124.997,120 229.997,120 
		229.997,90 134.997,90 134.997,60 94.997,60 94.997,430 229.997,430 229.997,400 	"/>
	<rect x="229.997" y="30" style="fill:#96B5A5;" width="95" height="60"/>
	<rect x="229.997" style="fill:#07806D;" width="60" height="30"/>
	<rect x="134.997" y="30" style="fill:#B7D6CA;" width="95" height="60"/>
	<rect x="169.997" style="fill:#42968A;" width="60" height="30"/>
	<rect x="124.997" y="120" style="fill:#F46A1A;" width="105" height="30"/>
	<rect x="124.997" y="180" style="fill:#F46A1A;" width="105" height="30"/>
	<rect x="124.997" y="240" style="fill:#F46A1A;" width="105" height="30"/>
	<rect x="229.997" y="120" style="fill:#D5310E;" width="105" height="30"/>
	<rect x="229.997" y="180" style="fill:#D5310E;" width="105" height="30"/>
	<polygon style="fill:#B7D6CA;" points="215,340 185,340 185,370 215,370 215,400 245,400 245,370 275,370 275,340 245,340 245,310 
		215,310 	"/>
	<polygon style="fill:#B7D6CA;" points="304.997,370 304.997,430 364.997,370 	"/>
	<polygon style="fill:#96B5A5;" points="304.997,430 364.997,430 364.997,370 	"/>
</g>
<g>
</g>
<g>
</g>
<g>
</g>
<g>
</g>
<g>
</g>
<g>
</g>
<g>
</g>
<g>
</g>
<g>
</g>
<g>
</g>
<g>
</g>
<g>
</g>
<g>
</g>
<g>
</g>
<g>
</g>
</svg>
