<?xml version="1.0" encoding="iso-8859-1"?>
<!-- Generator: Adobe Illustrator 19.0.0, SVG Export Plug-In . SVG Version: 6.00 Build 0)  -->
<svg version="1.1" id="Layer_1" xmlns="http://www.w3.org/2000/svg" xmlns:xlink="http://www.w3.org/1999/xlink" x="0px" y="0px"
	 viewBox="0 0 512 512" style="enable-background:new 0 0 512 512;" xml:space="preserve">
<path style="fill:#F1CB30;" d="M256,0C114.842,0,0,114.842,0,256s114.842,256,256,256s256-114.842,256-256S397.158,0,256,0z"/>
<g>
	<path style="fill:#57575C;" d="M355.297,175.321c-8.161,0-16.167,3.305-21.938,9.092c-5.773,5.772-9.092,13.762-9.092,21.938
		c0,8.163,3.32,16.168,9.092,21.94c5.772,5.772,13.777,9.09,21.938,9.09c8.161,0,16.167-3.32,21.938-9.09
		c5.773-5.772,9.092-13.777,9.092-21.94c0-8.176-3.32-16.167-9.092-21.938C371.464,178.626,363.472,175.321,355.297,175.321z"/>
	<path style="fill:#57575C;" d="M178.641,228.291c5.773-5.772,9.092-13.762,9.092-21.94c0-8.176-3.32-16.167-9.092-21.938
		c-5.772-5.787-13.777-9.092-21.938-9.092c-8.161,0-16.167,3.305-21.938,9.092c-5.772,5.772-9.092,13.762-9.092,21.938
		c0,8.176,3.32,16.168,9.092,21.94c5.772,5.786,13.777,9.09,21.938,9.09C164.864,237.382,172.87,234.077,178.641,228.291z"/>
</g>
<path style="fill:#DF6246;" d="M356.49,326.085c-3.603-8.696-12.088-14.367-21.501-14.367H256h-78.991
	c-9.413,0-17.898,5.671-21.501,14.367c-3.601,8.696-1.61,18.708,5.046,25.363c25.495,25.493,59.392,39.534,95.446,39.534
	s69.952-14.041,95.446-39.534C358.102,344.792,360.093,334.78,356.49,326.085z"/>
<path style="fill:#E69629;" d="M160.552,351.448c-6.656-6.654-8.647-16.665-5.046-25.363c3.603-8.696,12.088-14.367,21.501-14.367
	H256V0C114.842,0,0,114.842,0,256s114.842,256,256,256V390.982C219.946,390.982,186.048,376.941,160.552,351.448z M125.673,206.352
	c0-8.176,3.32-16.167,9.092-21.938c5.772-5.787,13.777-9.092,21.938-9.092c8.161,0,16.167,3.305,21.938,9.092
	c5.773,5.772,9.092,13.762,9.092,21.938c0,8.176-3.32,16.168-9.092,21.94c-5.772,5.786-13.777,9.09-21.938,9.09
	c-8.161,0-16.167-3.305-21.938-9.09C128.993,222.52,125.673,214.528,125.673,206.352z"/>
<path style="fill:#DD512A;" d="M177.009,311.718c-9.413,0-17.898,5.671-21.501,14.367c-3.601,8.696-1.61,18.708,5.046,25.363
	c25.495,25.493,59.39,39.534,95.445,39.534v-79.264H177.009z"/>
<g>
</g>
<g>
</g>
<g>
</g>
<g>
</g>
<g>
</g>
<g>
</g>
<g>
</g>
<g>
</g>
<g>
</g>
<g>
</g>
<g>
</g>
<g>
</g>
<g>
</g>
<g>
</g>
<g>
</g>
</svg>
