<?xml version="1.0" encoding="iso-8859-1"?>
<!-- Generator: Adobe Illustrator 19.0.0, SVG Export Plug-In . SVG Version: 6.00 Build 0)  -->
<svg version="1.1" id="Layer_1" xmlns="http://www.w3.org/2000/svg" xmlns:xlink="http://www.w3.org/1999/xlink" x="0px" y="0px"
	 viewBox="0 0 469.879 469.879" style="enable-background:new 0 0 469.879 469.879;" xml:space="preserve">
<g>
	<rect x="176.133" y="144.494" style="fill:#EA4262;" width="117.612" height="13.895"/>
	<path style="fill:#22A1D3;" d="M313.053,156.393H156.826c-12.361,0-22.382,10.021-22.382,22.382v267.408
		c0,13.086,10.608,23.694,23.694,23.694H311.74c13.086,0,23.694-10.608,23.694-23.694V178.775
		C335.435,166.414,325.414,156.393,313.053,156.393z"/>
	<path style="fill:#1691B7;" d="M335.435,178.779v267.4c0,13.09-10.61,23.7-23.69,23.7h-16c13.08,0,23.69-10.61,23.69-23.7v-267.4
		c0-12.37-10.02-22.39-22.38-22.39h16C325.414,156.389,335.435,166.409,335.435,178.779z"/>
	<path style="fill:#60C3E2;" d="M237.934,168.393h-44.987c-12.361,0-22.382,10.021-22.382,22.382v243.41
		c0,13.086,10.608,23.694,23.694,23.694h42.362c13.086,0,23.694-10.608,23.694-23.694v-243.41
		C260.316,178.413,250.295,168.393,237.934,168.393z"/>
	<rect x="158.444" y="229.89" style="fill:#F2F2F2;" width="152.992" height="155.992"/>
	<rect x="260.316" y="229.89" style="fill:#CCCCCC;" width="51.12" height="155.992"/>
	<rect x="195.942" y="260.525" style="fill:#666666;" width="77.996" height="17.999"/>
	<rect x="195.942" y="298.886" style="fill:#666666;" width="77.996" height="17.999"/>
	<rect x="195.942" y="337.248" style="fill:#666666;" width="77.996" height="17.999"/>
	<rect x="158.444" y="229.89" style="fill:#CCCCCC;" width="12.122" height="155.992"/>
	<path style="fill:#FF5069;" d="M269.188,58.498l-6.552-43.802C261.373,6.25,254.119,0,245.579,0H224.3
		c-8.54,0-15.794,6.25-17.058,14.696l-6.552,43.802l-24.634,10.634c-6.138,2.65-10.114,8.695-10.114,15.381v60.981h137.993V84.513
		c0-6.686-3.975-12.731-10.114-15.381L269.188,58.498z"/>
	<path style="fill:#EA4262;" d="M303.936,84.51v60.98h-14V84.51c0-6.68-3.97-12.73-10.11-15.38l-24.64-10.63l-6.55-43.8
		c-1.26-8.45-8.51-14.7-17.05-14.7h14c8.54,0,15.79,6.25,17.05,14.7l6.55,43.8l24.64,10.63
		C299.966,71.78,303.936,77.83,303.936,84.51z"/>
	<path style="fill:#FCA7B3;" d="M245.258,67.468l-3.408-39.286c-0.657-7.575-4.431-13.181-8.874-13.181h-11.071
		c-4.443,0-8.217,5.605-8.874,13.181l-3.408,39.286l-12.816,9.537c-3.194,2.376-5.262,7.799-5.262,13.795v54.694h71.791V90.8
		c0-5.997-2.068-11.419-5.261-13.795L245.258,67.468z"/>
</g>
<g>
</g>
<g>
</g>
<g>
</g>
<g>
</g>
<g>
</g>
<g>
</g>
<g>
</g>
<g>
</g>
<g>
</g>
<g>
</g>
<g>
</g>
<g>
</g>
<g>
</g>
<g>
</g>
<g>
</g>
</svg>
