<?xml version="1.0" encoding="iso-8859-1"?>
<!-- Generator: Adobe Illustrator 19.0.0, SVG Export Plug-In . SVG Version: 6.00 Build 0)  -->
<svg version="1.1" id="Layer_1" xmlns="http://www.w3.org/2000/svg" xmlns:xlink="http://www.w3.org/1999/xlink" x="0px" y="0px"
	 viewBox="0 0 496 496" style="enable-background:new 0 0 496 496;" xml:space="preserve">
<g>
	<path style="fill:#9DCAD1;" d="M255.2,480c-4-64-103.2-166.4-156-166.4S59.2,416,55.2,480H255.2z"/>
	<path style="fill:#9DCAD1;" d="M176,178.4c0,19.2-14.4,37.6-33.6,37.6H64.8C45.6,216,48,197.6,48,178.4V35.2C48,16,60.8,0,80,0
		h62.4C161.6,0,176,16,176,35.2V178.4z"/>
</g>
<path style="fill:#A7D2D6;" d="M144,216H64.8C45.6,216,48,197.6,48,178.4V35.2C48,16,60.8,0,80,0h64"/>
<path style="fill:#B3D9E2;" d="M144,216H64.8C45.6,216,48,197.6,48,178.4V32"/>
<path style="fill:#A7D2D6;" d="M352,296.8c0,7.2-1.6,15.2-8.8,15.2H57.6c-7.2,0-9.6-8.8-9.6-15.2v-81.6c0-7.2,2.4-15.2,9.6-15.2
	h285.6c7.2,0,8.8,8,8.8,15.2V296.8z"/>
<path style="fill:#9DCAD1;" d="M48,298.4c7.2,48,21.6,86.4,120.8,86.4c98.4,0,288-28.8,278.4-165.6L346.4,212L48,298.4z"/>
<path style="fill:#B3D9E2;" d="M460,216c0,8-6.4,16-15.2,16H51.2c-8,0-15.2-8-15.2-16l0,0c0-8,6.4-16,15.2-16h394.4
	C453.6,200,460,208,460,216L460,216z"/>
<path style="fill:#A7D2D6;" d="M261.6,488c0,4.8,4,8-0.8,8H49.6c-4.8,0-0.8-3.2-0.8-8l0,0c0-4.8,4-8,8.8-8H252
	C257.6,480,261.6,483.2,261.6,488L261.6,488z"/>
<path style="fill:#9DCAD1;" d="M261.6,487.2L261.6,487.2c0,4.8,4,8.8-0.8,8.8H49.6c-4.8,0-0.8-4-0.8-8.8l0,0"/>
<path style="fill:#B3D9E2;" d="M436.8,188c0,5.6-4.8,12-10.4,12h-220c-5.6,0-10.4-6.4-10.4-12l0,0c0-5.6,4.8-12,10.4-12h220
	C432,176,436.8,182.4,436.8,188L436.8,188z"/>
<path style="fill:#A7D2D6;" d="M448,200.8c0,4-3.2,7.2-7.2,7.2H191.2c-4,0-7.2-3.2-7.2-7.2v-1.6c0-4,3.2-7.2,7.2-7.2h249.6
	c4,0,7.2,3.2,7.2,7.2V200.8z"/>
<path style="fill:#9DCAD1;" d="M121.6,85.6c-5.6,5.6-30.4-10.4-36-16s-5.6-14.4,0-20s14.4-5.6,20,0C111.2,55.2,127.2,80,121.6,85.6z
	"/>
<path style="fill:#4B6060;" d="M131.2,57.6c0,8-28.8,13.6-36.8,13.6s-13.6-6.4-13.6-13.6S87.2,44,94.4,44S131.2,49.6,131.2,57.6z"/>
<path style="fill:#2C3A3A;" d="M131.2,57.6c0,8-28.8,13.6-36.8,13.6s-13.6-6.4-13.6-13.6"/>
<circle style="fill:#667E7F;" cx="94.4" cy="57.6" r="7.2"/>
<path style="fill:#4B6060;" d="M101.6,57.6c0,4-3.2,7.2-7.2,7.2s-7.2-3.2-7.2-7.2"/>
<g>
</g>
<g>
</g>
<g>
</g>
<g>
</g>
<g>
</g>
<g>
</g>
<g>
</g>
<g>
</g>
<g>
</g>
<g>
</g>
<g>
</g>
<g>
</g>
<g>
</g>
<g>
</g>
<g>
</g>
</svg>
