<?xml version="1.0" encoding="iso-8859-1"?>
<!-- Generator: Adobe Illustrator 19.0.0, SVG Export Plug-In . SVG Version: 6.00 Build 0)  -->
<svg version="1.1" id="Layer_1" xmlns="http://www.w3.org/2000/svg" xmlns:xlink="http://www.w3.org/1999/xlink" x="0px" y="0px"
	 viewBox="0 0 512 512" style="enable-background:new 0 0 512 512;" xml:space="preserve">
<circle style="fill:#BCC987;" cx="280.427" cy="231.053" r="220.854"/>
<circle style="fill:#FFAD61;" cx="189.062" cy="322.172" r="91.12"/>
<path style="fill:#D35B38;" d="M112.746,422.748l-74.294,74.294c-6.345,6.345-16.633,6.345-22.978,0l0,0
	c-6.345-6.345-6.345-16.633,0-22.978l74.294-74.294L112.746,422.748z"/>
<g>
	<path style="fill:#4D3D36;" d="M443.809,67.676C400.168,24.033,342.144,0,280.426,0c-61.717,0-119.741,24.033-163.382,67.676
		c-43.64,43.64-67.675,101.665-67.675,163.382c0,58.445,21.565,113.568,60.911,156.311l-9.245,9.245l-4.055-4.055
		c-1.912-1.912-4.507-2.987-7.212-2.987c-2.705,0-5.3,1.075-7.212,2.987L8.262,466.852c-4.996,4.995-7.746,11.636-7.746,18.701
		c0,7.064,2.751,13.706,7.746,18.7c4.996,4.995,11.636,7.746,18.7,7.746c7.065,0,13.706-2.751,18.701-7.746l74.294-74.294
		c3.983-3.983,3.983-10.441,0-14.425l-4.499-4.499l9.267-9.266c42.656,38.988,97.535,60.344,155.701,60.344
		c61.718,0,119.742-24.033,163.382-67.676c43.641-43.64,67.676-101.665,67.676-163.381
		C511.483,169.339,487.45,111.316,443.809,67.676z M31.239,489.831c-1.142,1.142-2.661,1.771-4.277,1.771
		c-1.615,0-3.134-0.628-4.277-1.772c-1.142-1.142-1.772-2.661-1.772-4.276c0-1.616,0.629-3.134,1.772-4.277l67.081-67.082
		l8.554,8.554L31.239,489.831z M490.817,220.401h-76.617c-1.478-56.249-14.628-108.898-37.412-149.234
		c-9.071-16.06-19.305-29.512-30.399-40.179C427.116,57.67,486.387,131.927,490.817,220.401z M351.907,240.799h41.911
		c-1.335,53.1-13.566,102.543-34.79,140.117c-18.963,33.573-42.945,53.817-68.402,58.102V23.098
		c25.458,4.284,49.439,24.529,68.402,58.102c21.102,37.358,33.319,86.448,34.771,139.201h-41.891
		c-5.632,0-10.199,4.567-10.199,10.199S346.275,240.799,351.907,240.799z M270.226,261.603
		c-5.914-7.904-12.956-14.917-20.882-20.805h20.882V261.603z M189.057,241.257c44.618,0,80.918,36.3,80.918,80.918
		s-36.3,80.918-80.918,80.918s-80.918-36.3-80.918-80.918S144.439,241.257,189.057,241.257z M270.226,382.747v56.273
		c-14.739-2.498-29.069-10.399-42.283-23.292C244.824,408.684,259.41,397.205,270.226,382.747z M270.226,23.098v197.303H167.055
		c1.452-52.752,13.669-101.843,34.77-139.201C220.789,47.627,244.769,27.382,270.226,23.098z M87.901,316.521
		c-10.396-23.328-16.672-48.877-17.901-75.722h58.769C105.309,258.224,89.614,285.538,87.901,316.521z M205.893,422.086
		c2.824,3.221,5.711,6.244,8.654,9.069c-6.866-2.266-13.58-4.87-20.116-7.804C198.313,423.146,202.136,422.716,205.893,422.086z
		 M214.463,30.987c-11.094,10.666-21.327,24.119-30.399,40.179c-22.784,40.337-35.934,92.985-37.412,149.234H70.035
		C74.466,131.927,133.738,57.67,214.463,30.987z M346.39,431.126c11.094-10.666,21.327-24.118,30.399-40.179
		c22.907-40.555,36.073-93.556,37.43-150.15h76.633C486.786,329.674,427.393,404.353,346.39,431.126z"/>
	<path style="fill:#4D3D36;" d="M318.916,220.401h-5.499c-5.632,0-10.199,4.567-10.199,10.199s4.567,10.199,10.199,10.199h5.499
		c5.632,0,10.199-4.567,10.199-10.199S324.548,220.401,318.916,220.401z"/>
</g>
<g>
</g>
<g>
</g>
<g>
</g>
<g>
</g>
<g>
</g>
<g>
</g>
<g>
</g>
<g>
</g>
<g>
</g>
<g>
</g>
<g>
</g>
<g>
</g>
<g>
</g>
<g>
</g>
<g>
</g>
</svg>
