<?xml version="1.0" encoding="iso-8859-1"?>
<!-- Generator: Adobe Illustrator 19.0.0, SVG Export Plug-In . SVG Version: 6.00 Build 0)  -->
<svg version="1.1" id="Layer_1" xmlns="http://www.w3.org/2000/svg" xmlns:xlink="http://www.w3.org/1999/xlink" x="0px" y="0px"
	 viewBox="0 0 512 512" style="enable-background:new 0 0 512 512;" xml:space="preserve">
<g>
	<path style="fill:#ABB8B9;" d="M288.002,416c23.466,0,42.663-19.199,42.663-42.666V224.001c0-23.467-19.197-42.666-42.663-42.666
		H96.002c-23.468,0-42.67,19.199-42.67,42.666v149.332c0,23.467,19.201,42.666,42.67,42.666h191.999V416z"/>
	<path style="fill:#ED8C18;" d="M330.665,373.334c0,23.467-19.197,42.666-42.663,42.666H96.002c-23.468,0-42.67-19.199-42.67-42.666
		V224.001c0-23.467,19.201-42.666,42.67-42.666h191.998c23.466,0,42.663,19.199,42.663,42.666v149.333H330.665z M501.333,138.67
		l-323.86-0.002h-37.417L10.667,138.67v319.996h42.665h42.67h319.995h42.665h42.67V138.67L501.333,138.67z M383.998,384.001
		c0-17.671,14.328-31.998,32-31.998c17.674,0,32.002,14.327,32.002,31.998c0,17.674-14.328,32.003-32.002,32.003
		C398.325,416.005,383.998,401.675,383.998,384.001z"/>
	<g>
		<path style="fill:#657694;" d="M383.998,384.001c0,17.674,14.328,32.003,32,32.003c17.674,0,32.002-14.33,32.002-32.003
			c0-17.671-14.328-31.998-32.002-31.998C398.325,352.003,383.998,366.331,383.998,384.001z"/>
		<rect x="415.997" y="458.667" style="fill:#657694;" width="42.665" height="42.664"/>
		<rect x="53.333" y="458.667" style="fill:#657694;" width="42.67" height="42.664"/>
		<path style="fill:#657694;" d="M228.387,50.481c3.137,1.817,6.779,2.856,10.67,2.856c11.78,0,21.333-9.551,21.333-21.335
			c0-11.779-9.553-21.332-21.333-21.332c-11.784,0-21.333,9.553-21.333,21.332C217.724,39.899,222.011,46.792,228.387,50.481z"/>
		<path style="fill:#657694;" d="M89.14,50.481c6.376-3.689,10.663-10.582,10.663-18.479c0-11.779-9.548-21.332-21.331-21.332
			c-11.78,0-21.333,9.553-21.333,21.332c0,11.783,9.553,21.335,21.333,21.335C82.36,53.336,86.002,52.297,89.14,50.481z"/>
	</g>
</g>
<g>
	<path style="fill:#000003;" d="M501.333,128.003H195.947l37.263-64.541c1.896,0.352,3.848,0.545,5.846,0.545
		c17.645,0,32-14.356,32-32.002s-14.355-32.002-32-32.002c-17.647,0-32.004,14.356-32.004,32.002c0,7.925,2.903,15.18,7.69,20.776
		l-43.43,75.222h-25.097l-43.43-75.222c4.79-5.596,7.692-12.851,7.692-20.777c0-17.646-14.357-32.002-32.004-32.002
		c-17.645,0-32,14.356-32,32.002s14.355,32.002,32,32.002c1.996,0,3.948-0.193,5.845-0.544l37.263,64.54H10.667
		C4.776,128.002,0,132.778,0,138.669v319.997c0,5.892,4.776,10.667,10.667,10.667h31.998v31.997c0,5.892,4.776,10.667,10.667,10.667
		h42.67c5.889,0,10.667-4.776,10.667-10.667v-31.997H405.33v31.997c0,5.892,4.776,10.667,10.667,10.667h42.665
		c5.891,0,10.667-4.776,10.667-10.667v-31.997h32.002c5.891,0,10.667-4.776,10.667-10.667V138.67
		C512,132.779,507.222,128.003,501.333,128.003z M239.056,21.337c5.88,0,10.665,4.785,10.665,10.667s-4.785,10.667-10.665,10.667
		c-5.884,0-10.67-4.785-10.67-10.667S233.172,21.337,239.056,21.337z M67.806,32.004c0-5.882,4.783-10.667,10.665-10.667
		s10.67,4.785,10.67,10.667s-4.788,10.667-10.67,10.667C72.591,42.671,67.806,37.887,67.806,32.004z M85.335,490.664H64v-21.329
		h21.335V490.664z M447.996,490.664h-21.331v-21.329h21.331V490.664z M490.665,447.999h-32.002h-42.665H96.002h-42.67H21.335
		V149.338h469.33V447.999z"/>
	<path style="fill:#000003;" d="M42.665,224.001v149.332c0,29.408,23.927,53.334,53.337,53.334h191.998
		c29.406,0,53.331-23.926,53.331-53.334V224.001c0-29.409-23.925-53.334-53.331-53.334H96.002
		C66.592,170.667,42.665,194.593,42.665,224.001z M319.997,224.001v149.332c0,17.644-14.353,31.999-31.996,31.999H96.002
		C78.355,405.332,64,390.977,64,373.333V224.001c0-17.644,14.355-31.999,32.002-31.999h191.998
		C305.645,192.002,319.997,206.357,319.997,224.001z"/>
	<path style="fill:#000003;" d="M404.228,192.002h54.439c5.889,0,10.667-4.776,10.667-10.667s-4.778-10.667-10.667-10.667h-54.439
		c-5.892,0-10.667,4.776-10.667,10.667S398.336,192.002,404.228,192.002z"/>
	<path style="fill:#000003;" d="M373.33,192.006h0.256c5.891,0,10.667-4.776,10.667-10.667c0-5.892-4.777-10.667-10.667-10.667
		h-0.256c-5.892,0-10.667,4.776-10.667,10.667S367.438,192.006,373.33,192.006z"/>
	<path style="fill:#000003;" d="M373.33,234.668h85.337c5.889,0,10.667-4.776,10.667-10.667s-4.778-10.667-10.667-10.667H373.33
		c-5.892,0-10.667,4.776-10.667,10.667C362.663,229.893,367.438,234.668,373.33,234.668z"/>
	<path style="fill:#000003;" d="M373.33,277.333h85.337c5.889,0,10.667-4.776,10.667-10.667c0-5.892-4.778-10.667-10.667-10.667
		H373.33c-5.892,0-10.667,4.776-10.667,10.667C362.663,272.557,367.438,277.333,373.33,277.333z"/>
	<path style="fill:#000003;" d="M373.33,319.998h85.337c5.889,0,10.667-4.776,10.667-10.667c0-5.892-4.778-10.667-10.667-10.667
		H373.33c-5.892,0-10.667,4.776-10.667,10.667C362.663,315.222,367.438,319.998,373.33,319.998z"/>
	<path style="fill:#000003;" d="M415.998,341.336c-23.527,0-42.667,19.141-42.667,42.669s19.141,42.667,42.667,42.667
		c23.529,0,42.67-19.141,42.67-42.667S439.526,341.336,415.998,341.336z M415.998,405.337c-11.763,0-21.333-9.57-21.333-21.333
		s9.57-21.334,21.333-21.334c11.763,0,21.335,9.57,21.335,21.334C437.332,395.766,427.761,405.337,415.998,405.337z"/>
	<path style="fill:#000003;" d="M85.329,287.998v0.254c0,5.892,4.775,10.667,10.667,10.667c5.892,0,10.667-4.776,10.667-10.667
		v-0.254c0-5.892-4.776-10.667-10.667-10.667C90.104,277.331,85.329,282.106,85.329,287.998z"/>
	<path style="fill:#000003;" d="M96.002,308.229c-5.892,0-10.667,4.776-10.667,10.667v54.438c0,5.892,4.776,10.667,10.667,10.667
		c5.889,0,10.667-4.776,10.667-10.667v-54.438C106.67,313.004,101.893,308.229,96.002,308.229z"/>
</g>
<g>
</g>
<g>
</g>
<g>
</g>
<g>
</g>
<g>
</g>
<g>
</g>
<g>
</g>
<g>
</g>
<g>
</g>
<g>
</g>
<g>
</g>
<g>
</g>
<g>
</g>
<g>
</g>
<g>
</g>
</svg>
